<?xml version="1.0" encoding="UTF-8" standalone="no"?>
<svg xmlns="http://www.w3.org/2000/svg" xmlns:xlink="http://www.w3.org/1999/xlink" width="48" height="48">
  <defs>
    <radialGradient xlink:href="#a" id="f" cx="21.72279" cy="11.658308" r="19.875" fx="21.72279" fy="11.658308" gradientTransform="matrix(1.37635 0 0 2.59354 -8.1178793 -19.236296)" gradientUnits="userSpaceOnUse"/>
    <radialGradient xlink:href="#b" id="e" cx="23.3125" cy="40.9375" r="17.1875" fx="23.3125" fy="40.9375" gradientTransform="matrix(1 0 0 .31636 0 27.98636)" gradientUnits="userSpaceOnUse"/>
    <radialGradient xlink:href="#c" id="h" cx="24.1875" cy="10.035937" r="2.6875" fx="24.1875" fy="10.035937" gradientTransform="translate(-28.420311 -11.926601) scale(2.175)" gradientUnits="userSpaceOnUse"/>
    <radialGradient xlink:href="#c" id="i" cx="24.1875" cy="10.035937" r="2.6875" fx="24.1875" fy="10.035937" gradientTransform="translate(-28.420311 -11.926601) scale(2.175)" gradientUnits="userSpaceOnUse"/>
    <radialGradient xlink:href="#c" id="j" cx="24.1875" cy="10.035937" r="2.6875" fx="24.1875" fy="10.035937" gradientTransform="translate(-28.420311 -11.926601) scale(2.175)" gradientUnits="userSpaceOnUse"/>
    <radialGradient xlink:href="#c" id="k" cx="24.1875" cy="10.035937" r="2.6875" fx="24.1875" fy="10.035937" gradientTransform="translate(-28.420311 -11.926601) scale(2.175)" gradientUnits="userSpaceOnUse"/>
    <radialGradient xlink:href="#c" id="l" cx="24.1875" cy="10.035937" r="2.6875" fx="24.1875" fy="10.035937" gradientTransform="translate(-28.420311 -11.926601) scale(2.175)" gradientUnits="userSpaceOnUse"/>
    <radialGradient xlink:href="#c" id="m" cx="24.1875" cy="10.035937" r="2.6875" fx="24.1875" fy="10.035937" gradientTransform="translate(-28.420311 -11.926601) scale(2.175)" gradientUnits="userSpaceOnUse"/>
    <radialGradient xlink:href="#c" id="n" cx="24.1875" cy="10.035937" r="2.6875" fx="24.1875" fy="10.035937" gradientTransform="translate(-28.420311 -11.926601) scale(2.175)" gradientUnits="userSpaceOnUse"/>
    <radialGradient xlink:href="#c" id="o" cx="24.1875" cy="10.035937" r="2.6875" fx="24.1875" fy="10.035937" gradientTransform="translate(-28.420311 -11.926601) scale(2.175)" gradientUnits="userSpaceOnUse"/>
    <radialGradient xlink:href="#c" id="p" cx="24.1875" cy="10.035937" r="2.6875" fx="24.1875" fy="10.035937" gradientTransform="translate(-28.420311 -11.926601) scale(2.175)" gradientUnits="userSpaceOnUse"/>
    <linearGradient id="c">
      <stop offset="0" stop-color="#fff"/>
      <stop offset=".57499957" stop-color="#2e2e2e"/>
      <stop offset="1" stop-color="#cbcbcb"/>
    </linearGradient>
    <linearGradient id="d">
      <stop offset="0" stop-color="#fff" stop-opacity="0"/>
      <stop offset=".5" stop-color="#fff"/>
      <stop offset="1" stop-color="#fff" stop-opacity=".10625"/>
    </linearGradient>
    <linearGradient id="a">
      <stop offset="0" stop-color="#f8f8f7"/>
      <stop offset=".54471505" stop-color="#b3b6af"/>
      <stop offset=".67252082" stop-color="#6b7264"/>
      <stop offset=".786762" stop-color="#d1d5cc"/>
      <stop offset="1" stop-color="#e0e3de"/>
    </linearGradient>
    <linearGradient id="b">
      <stop offset="0"/>
      <stop offset="1" stop-opacity="0"/>
    </linearGradient>
    <linearGradient xlink:href="#d" id="g" x1="5.2488836" x2="36.811779" y1="23.500003" y2="23.500002" gradientUnits="userSpaceOnUse"/>
  </defs>
  <g color="#000">
    <path fill="url(#e)" d="M40.5 40.9375a17.1875 5.4375 0 1 1-34.375 0 17.1875 5.4375 0 1 1 34.375 0z" display="block" opacity=".36931817" overflow="visible" style="marker:none" transform="translate(.4053299 .625)"/>
    <path fill="url(#f)" stroke="#888a85" stroke-linecap="round" stroke-linejoin="round" stroke-width="1.00000024" d="M23.530328 3c-7.400966 5.5765861-18.9999982 9-18.9999982 9 3 25.75 19.3749982 32 19.3749982 32s16.125-6.5 19.375-32.375c0 0-14-5.125-19.75-8.625z" display="block" overflow="visible" style="marker:none"/>
    <path fill="none" stroke="url(#g)" stroke-linecap="round" stroke-linejoin="round" stroke-width="1.00000036" d="M23.553915 4.289309c-6.935497 5.2258579-17.8050312 8.433963-17.8050312 8.433963C8.5602048 36.853777 23.866022 42.710696 23.866022 42.710696s15.150159-6.091195 18.195756-30.338839c0 0-13.119498-4.8026735-18.507863-8.082548z" display="block" overflow="visible" style="marker:none"/>
    <path fill="url(#h)" d="M26.875 11.3125a2.6875 2.6875 0 1 1-5.375 0 2.6875 2.6875 0 1 1 5.375 0z" overflow="visible" style="marker:none" transform="translate(10.125 1.4360465) scale(.55814)"/>
    <path fill="url(#i)" d="M26.875 11.3125a2.6875 2.6875 0 1 1-5.375 0 2.6875 2.6875 0 1 1 5.375 0z" overflow="visible" style="marker:none" transform="translate(-5.0625 8.3110461) scale(.55814)"/>
    <path fill="url(#j)" d="M26.875 11.3125a2.6875 2.6875 0 1 1-5.375 0 2.6875 2.6875 0 1 1 5.375 0z" overflow="visible" style="marker:none" transform="translate(25.874999 8.0610459) scale(.55814)"/>
    <path fill="url(#k)" d="M26.875 11.3125a2.6875 2.6875 0 1 1-5.375 0 2.6875 2.6875 0 1 1 5.375 0z" overflow="visible" style="marker:none" transform="translate(14.697125 33.603363) scale(.38547)"/>
    <path fill="url(#l)" d="M26.875 11.3125a2.6875 2.6875 0 1 1-5.375 0 2.6875 2.6875 0 1 1 5.375 0z" overflow="visible" style="marker:none" transform="translate(14.676348 23.706537) scale(.38547)"/>
    <path fill="url(#m)" d="M26.875 11.3125a2.6875 2.6875 0 1 1-5.375 0 2.6875 2.6875 0 1 1 5.375 0z" overflow="visible" style="marker:none" transform="translate(14.863848 18.519037) scale(.38547)"/>
    <path fill="url(#n)" d="M26.875 11.3125a2.6875 2.6875 0 1 1-5.375 0 2.6875 2.6875 0 1 1 5.375 0z" overflow="visible" style="marker:none" transform="translate(14.738848 13.603364) scale(.38547)"/>
    <path fill="url(#o)" d="M26.875 11.3125a2.6875 2.6875 0 1 1-5.375 0 2.6875 2.6875 0 1 1 5.375 0z" overflow="visible" style="marker:none" transform="translate(14.676348 8.728364) scale(.38547)"/>
    <path fill="url(#p)" d="M26.875 11.3125a2.6875 2.6875 0 1 1-5.375 0 2.6875 2.6875 0 1 1 5.375 0z" overflow="visible" style="marker:none" transform="translate(14.676348 28.706537) scale(.38547)"/>
  </g>
</svg>